<svg width="324" height="252" viewBox="0 0 324 252" fill="none" xmlns="http://www.w3.org/2000/svg">
<g id="ERPIllustration">
<g id="main">
<g id="Group" opacity="0.3">
<path id="Vector" d="M161.357 106.253L64.2184 37.6838" stroke="#73B942" stroke-width="1.14281" stroke-dasharray="3.43 2.29"/>
<path id="Vector_2" d="M161.357 106.253L258.496 37.6838" stroke="#60A5FA" stroke-width="1.14281" stroke-dasharray="3.43 2.29"/>
<path id="Vector_3" d="M161.357 117.681L41.3619 140.537" stroke="#60A5FA" stroke-width="1.14281" stroke-dasharray="3.43 2.29"/>
<path id="Vector_4" d="M161.357 117.681L281.352 140.537" stroke="#73B942" stroke-width="1.14281" stroke-dasharray="3.43 2.29"/>
<path id="Vector_5" d="M161.357 129.109L64.2184 220.534" stroke="#73B942" stroke-width="1.14281" stroke-dasharray="3.43 2.29"/>
<path id="Vector_6" d="M161.357 129.109L258.496 220.534" stroke="#60A5FA" stroke-width="1.14281" stroke-dasharray="3.43 2.29"/>
</g>
<g id="card-main">
<path id="Vector_7" d="M226.497 71.968H96.2173C91.1673 71.968 87.0743 76.061 87.0743 81.111V177.107C87.0743 182.156 91.1673 186.25 96.2173 186.25H226.497C231.547 186.25 235.64 182.156 235.64 177.107V81.111C235.64 76.061 231.547 71.968 226.497 71.968Z" fill="url(#paint0_linear_8_741)" stroke="#E5E7EB" stroke-width="1.14281"/>
<path id="Vector_8" d="M226.497 71.968H96.2173C91.1673 71.968 87.0743 76.061 87.0743 81.111V90.253C87.0743 95.303 91.1673 99.396 96.2173 99.396H226.497C231.547 99.396 235.64 95.303 235.64 90.253V81.111C235.64 76.061 231.547 71.968 226.497 71.968Z" fill="white"/>
<path id="Vector_9" d="M235.64 91.968H87.0743V93.11H235.64V91.968Z" fill="#E5E7EB"/>
<path id="Vector_10" opacity="0.7" d="M97.3603 88.539C98.9373 88.539 100.217 87.26 100.217 85.682C100.217 84.104 98.9373 82.825 97.3603 82.825C95.7823 82.825 94.5033 84.104 94.5033 85.682C94.5033 87.26 95.7823 88.539 97.3603 88.539Z" fill="#F87171"/>
<path id="Vector_11" opacity="0.7" d="M106.502 88.539C108.08 88.539 109.359 87.26 109.359 85.682C109.359 84.104 108.08 82.825 106.502 82.825C104.924 82.825 103.645 84.104 103.645 85.682C103.645 87.26 104.924 88.539 106.502 88.539Z" fill="#FBBF24"/>
<path id="Vector_12" opacity="0.7" d="M115.644 88.539C117.222 88.539 118.501 87.26 118.501 85.682C118.501 84.104 117.222 82.825 115.644 82.825C114.067 82.825 112.787 84.104 112.787 85.682C112.787 87.26 114.067 88.539 115.644 88.539Z" fill="#73B942"/>
<path id="Vector_13" d="M187.927 82.2539H134.787C133.682 82.2539 132.787 83.1489 132.787 84.2539C132.787 85.3579 133.682 86.2529 134.787 86.2529H187.927C189.032 86.2529 189.927 85.3579 189.927 84.2539C189.927 83.1489 189.032 82.2539 187.927 82.2539Z" fill="#73B942"/>
<path id="Vector_14" d="M171.357 88.5391H134.215C133.426 88.5391 132.787 89.1791 132.787 89.9681C132.787 90.7571 133.426 91.3961 134.215 91.3961H171.357C172.146 91.3961 172.785 90.7571 172.785 89.9681C172.785 89.1791 172.146 88.5391 171.357 88.5391Z" fill="#D1D5DB"/>
<g id="Group_2">
<path id="Vector_15" d="M131.072 103.395H100.216C97.6924 103.395 95.6454 105.442 95.6454 107.967V127.395C95.6454 129.919 97.6924 131.966 100.216 131.966H131.072C133.597 131.966 135.644 129.919 135.644 127.395V107.967C135.644 105.442 133.597 103.395 131.072 103.395Z" fill="#F0FDF4"/>
<text id="342" fill="#73B942" xml:space="preserve" style="white-space: pre" font-family="Inter" font-size="10.2853" font-style="italic" font-weight="bold" letter-spacing="0em"><tspan x="105.745" y="118.305">342</tspan></text>
<path id="Vector_16" opacity="0.4" d="M129.93 123.395H101.359C100.728 123.395 100.216 123.906 100.216 124.538C100.216 125.169 100.728 125.68 101.359 125.68H129.93C130.561 125.68 131.072 125.169 131.072 124.538C131.072 123.906 130.561 123.395 129.93 123.395Z" fill="#73B942"/>
<path id="Vector_17" d="M176.785 103.395H145.929C143.404 103.395 141.358 105.442 141.358 107.967V127.395C141.358 129.919 143.404 131.966 145.929 131.966H176.785C179.31 131.966 181.356 129.919 181.356 127.395V107.967C181.356 105.442 179.31 103.395 176.785 103.395Z" fill="#EFF6FF"/>
<text id="89%" fill="#60A5FA" xml:space="preserve" style="white-space: pre" font-family="Inter" font-size="10.2853" font-style="italic" font-weight="bold" letter-spacing="0em"><tspan x="150.214" y="118.305">89%</tspan></text>
<path id="Vector_18" opacity="0.4" d="M175.642 123.395H147.072C146.441 123.395 145.929 123.906 145.929 124.538C145.929 125.169 146.441 125.68 147.072 125.68H175.642C176.273 125.68 176.785 125.169 176.785 124.538C176.785 123.906 176.273 123.395 175.642 123.395Z" fill="#60A5FA"/>
<path id="Vector_19" d="M222.497 103.395H191.642C189.117 103.395 187.07 105.442 187.07 107.967V127.395C187.07 129.919 189.117 131.966 191.642 131.966H222.497C225.022 131.966 227.069 129.919 227.069 127.395V107.967C227.069 105.442 225.022 103.395 222.497 103.395Z" fill="#F0FDF4"/>
<text id="24" fill="#73B942" xml:space="preserve" style="white-space: pre" font-family="Inter" font-size="10.2853" font-style="italic" font-weight="bold" letter-spacing="0em"><tspan x="199.568" y="118.305">24</tspan></text>
<path id="Vector_20" opacity="0.4" d="M221.355 123.395H192.784C192.153 123.395 191.642 123.906 191.642 124.538C191.642 125.169 192.153 125.68 192.784 125.68H221.355C221.986 125.68 222.498 125.169 222.498 124.538C222.498 123.906 221.986 123.395 221.355 123.395Z" fill="#73B942"/>
</g>
<g id="Group_3">
<path id="Vector_21" d="M108.216 149.108H103.074C102.127 149.108 101.359 149.876 101.359 150.822V164.536C101.359 165.483 102.127 166.25 103.074 166.25H108.216C109.163 166.25 109.93 165.483 109.93 164.536V150.822C109.93 149.876 109.163 149.108 108.216 149.108Z" fill="#93C5FD"/>
<path id="Vector_22" d="M121.359 140.537H116.216C115.269 140.537 114.502 141.305 114.502 142.251V164.536C114.502 165.483 115.269 166.25 116.216 166.25H121.359C122.305 166.25 123.073 165.483 123.073 164.536V142.251C123.073 141.305 122.305 140.537 121.359 140.537Z" fill="#60A5FA"/>
<path id="Vector_23" d="M134.501 134.823H129.358C128.411 134.823 127.644 135.59 127.644 136.537V164.536C127.644 165.483 128.411 166.25 129.358 166.25H134.501C135.448 166.25 136.215 165.483 136.215 164.536V136.537C136.215 135.59 135.448 134.823 134.501 134.823Z" fill="#73B942"/>
<path id="Vector_24" d="M147.643 143.394H142.501C141.554 143.394 140.786 144.162 140.786 145.108V164.536C140.786 165.483 141.554 166.25 142.501 166.25H147.643C148.59 166.25 149.357 165.483 149.357 164.536V145.108C149.357 144.162 148.59 143.394 147.643 143.394Z" fill="#93C5FD"/>
<path id="Vector_25" d="M160.786 139.394H155.643C154.696 139.394 153.929 140.162 153.929 141.108V164.536C153.929 165.483 154.696 166.25 155.643 166.25H160.786C161.732 166.25 162.5 165.483 162.5 164.536V141.108C162.5 140.162 161.732 139.394 160.786 139.394Z" fill="#60A5FA"/>
<path id="Vector_26" d="M217.069 140.537H174.214C173.425 140.537 172.785 141.177 172.785 141.966C172.785 142.755 173.425 143.394 174.214 143.394H217.069C217.858 143.394 218.498 142.755 218.498 141.966C218.498 141.177 217.858 140.537 217.069 140.537Z" fill="#D1D5DB"/>
<path id="Vector_27" d="M205.641 146.251H174.214C173.425 146.251 172.785 146.891 172.785 147.68C172.785 148.469 173.425 149.108 174.214 149.108H205.641C206.43 149.108 207.07 148.469 207.07 147.68C207.07 146.891 206.43 146.251 205.641 146.251Z" fill="#E5E7EB"/>
<path id="Vector_28" d="M211.355 151.965H174.214C173.425 151.965 172.785 152.605 172.785 153.394C172.785 154.183 173.425 154.822 174.214 154.822H211.355C212.144 154.822 212.784 154.183 212.784 153.394C212.784 152.605 212.144 151.965 211.355 151.965Z" fill="#E5E7EB"/>
</g>
</g>
</g>
<g id="card-user">
<path id="Vector_29" d="M95.2414 0.598046L29.2108 6.37495C25.4382 6.70505 22.6475 10.0308 22.9776 13.8033L26.2645 51.3727C26.5945 55.1452 29.9204 57.9359 33.6929 57.6058L99.7234 51.8289C103.496 51.4988 106.287 48.173 105.957 44.4005L102.67 6.83115C102.34 3.05865 99.0144 0.267946 95.2414 0.598046Z" fill="white" stroke="#E5E7EB" stroke-width="1.14281"/>
<path id="Vector_30" d="M41.7477 31.6631C46.7778 31.2231 50.4987 26.7886 50.0586 21.7586C49.6186 16.7285 45.1842 13.0076 40.1541 13.4477C35.1241 13.8878 31.4031 18.3222 31.8432 23.3522C32.2833 28.3823 36.7177 32.1032 41.7477 31.6631Z" fill="#EFF6FF"/>
<path id="Vector_31" d="M41.2 25.4016C43.4007 25.2091 45.0286 23.2691 44.836 21.0685C44.6435 18.8679 42.7034 17.2399 40.5028 17.4324C38.3021 17.6249 36.6742 19.565 36.8668 21.7656C37.0593 23.9663 38.9994 25.5942 41.2 25.4016Z" fill="#60A5FA"/>
<path id="Vector_32" d="M41.1999 25.4016C37.8034 30.2875 35.1564 32.8135 33.259 32.9795L50.336 31.4854C48.4385 31.6514 45.3932 29.6235 41.1999 25.4016Z" fill="#60A5FA"/>
<path id="Vector_33" opacity="0.6" d="M55.1818 21.3105C56.7537 21.173 57.9165 19.7872 57.779 18.2153C57.6414 16.6434 56.2557 15.4806 54.6838 15.6182C53.1119 15.7557 51.9491 17.1414 52.0866 18.7133C52.2242 20.2852 53.6099 21.448 55.1818 21.3105Z" fill="#93C5FD"/>
<path id="Vector_34" opacity="0.4" d="M61.0235 22.5202C62.5954 22.3827 63.7584 20.9969 63.6204 19.425C63.4834 17.8531 62.0974 16.6904 60.5255 16.8279C58.9536 16.9654 57.7908 18.3512 57.9283 19.9231C58.0658 21.4949 59.4516 22.6577 61.0235 22.5202Z" fill="#93C5FD"/>
<path id="Vector_35" d="M80.3343 33.4497L38.2114 37.135C37.2682 37.2175 36.5706 38.049 36.6531 38.9921C36.7356 39.9352 37.567 40.6329 38.5102 40.5504L80.6333 36.8651C81.5763 36.7826 82.2743 35.9511 82.1913 35.008C82.1093 34.0649 81.2773 33.3672 80.3343 33.4497Z" fill="#60A5FA"/>
<path id="Vector_36" d="M58.7819 42.7918L41.1357 44.3356C38.9351 44.5281 37.3072 46.4682 37.4997 48.6688C37.6922 50.8695 39.6323 52.4974 41.8329 52.3049L59.4791 50.761C61.6794 50.5685 63.3074 48.6284 63.1154 46.4278C62.9224 44.2271 60.9826 42.5992 58.7819 42.7918Z" fill="#EFF6FF"/>
<text id="342_2" transform="translate(43.7303 44.1091) rotate(-5)" fill="#60A5FA" xml:space="preserve" style="white-space: pre" font-family="Inter" font-size="6.28547" font-style="italic" font-weight="bold" letter-spacing="0em"><tspan x="0" y="6.28563">342</tspan></text>
</g>
<g id="card-statistic">
<path id="Vector_37" d="M293.151 5.7669L227.03 1.1432C223.252 0.879099 219.975 3.7274 219.711 7.5051L217.08 45.1261C216.816 48.9038 219.665 52.1804 223.442 52.4446L289.564 57.0682C293.342 57.3324 296.618 54.4841 296.883 50.7064L299.513 13.0854C299.777 9.3077 296.929 6.0311 293.151 5.7669Z" fill="white" stroke="#E5E7EB" stroke-width="1.14281"/>
<path id="Vector_38" d="M239.343 13.4603L232.503 12.982C231.558 12.916 230.739 13.628 230.673 14.5725L229.517 31.1029C229.451 32.0473 230.163 32.8665 231.108 32.9325L237.948 33.4108C238.892 33.4769 239.711 32.7648 239.777 31.8204L240.933 15.2899C240.999 14.3455 240.287 13.5264 239.343 13.4603Z" fill="#93C5FD"/>
<path id="Vector_39" d="M252.055 20.0773L245.214 19.599C244.27 19.5329 243.451 20.245 243.385 21.1894L242.627 32.0197C242.561 32.9641 243.273 33.7833 244.218 33.8493L251.058 34.3276C252.003 34.3937 252.822 33.6816 252.888 32.7372L253.645 21.9069C253.711 20.9625 252.999 20.1433 252.055 20.0773Z" fill="#60A5FA"/>
<path id="Vector_40" d="M265.763 12.4437L258.923 11.9654C257.978 11.8994 257.159 12.6114 257.093 13.5559L255.738 32.9364C255.672 33.8808 256.384 34.7 257.328 34.766L264.168 35.2443C265.113 35.3104 265.932 34.5983 265.998 33.6538L267.353 14.2733C267.419 13.3289 266.707 12.5098 265.763 12.4437Z" fill="#73B942"/>
<path id="Vector_41" d="M279.045 19.1003L285.143 13.7988L290.445 19.8975" stroke="#73B942" stroke-width="1.71422" stroke-linecap="round" stroke-linejoin="round"/>
<path id="Vector_42" d="M285.143 13.7991L284.227 26.9094" stroke="#73B942" stroke-width="1.42852" stroke-linecap="round"/>
<path id="Vector_43" d="M272.89 41.5823L230.709 38.6327C229.765 38.5667 228.945 39.2788 228.879 40.2232C228.813 41.1676 229.525 41.9868 230.47 42.0528L272.651 45.0024C273.595 45.0685 274.415 44.3564 274.481 43.412C274.547 42.4675 273.835 41.6484 272.89 41.5823Z" fill="#73B942"/>
<path id="Vector_44" d="M258.486 46.8758L229.986 44.8829C229.199 44.8278 228.516 45.4212 228.461 46.2083C228.406 46.9953 228.999 47.6779 229.786 47.733L258.287 49.7259C259.074 49.781 259.757 49.1876 259.812 48.4005C259.867 47.6135 259.273 46.9309 258.486 46.8758Z" fill="#D1D5DB"/>
</g>
<g id="card-status">
<path id="Vector_45" d="M73.2624 115.978L7.06958 119.447C3.28788 119.645 0.382779 122.871 0.580979 126.653L2.55468 164.314C2.75288 168.096 5.97928 171.001 9.76108 170.803L75.9534 167.334C79.7354 167.136 82.6404 163.909 82.4424 160.128L80.4684 122.466C80.2704 118.685 77.0434 115.78 73.2624 115.978Z" fill="white" stroke="#E5E7EB" stroke-width="1.14281"/>
<path id="Vector_46" d="M37.3401 129.304L15.6564 130.441C13.7655 130.54 12.313 132.153 12.4121 134.044L13.07 146.598C13.1691 148.488 14.7823 149.941 16.6732 149.842L38.3569 148.705C40.2478 148.606 41.7003 146.993 41.6012 145.102L40.9433 132.549C40.8442 130.658 39.231 129.205 37.3401 129.304Z" fill="#EFF6FF" stroke="#60A5FA" stroke-width="1.14281"/>
<path id="Vector_47" d="M25.5664 133.927L16.4364 134.405C15.8061 134.438 15.3219 134.976 15.355 135.606C15.388 136.236 15.9257 136.721 16.556 136.688L25.686 136.209C26.3163 136.176 26.8005 135.638 26.7674 135.008C26.7344 134.378 26.1967 133.894 25.5664 133.927Z" fill="#60A5FA"/>
<path id="Vector_48" opacity="0.5" d="M21.5696 145.008C22.8302 144.942 23.7985 143.866 23.7324 142.605C23.6664 141.345 22.5909 140.377 21.3303 140.443C20.0697 140.509 19.1014 141.584 19.1675 142.845C19.2335 144.105 20.309 145.074 21.5696 145.008Z" fill="#FBBF24"/>
<path id="Vector_49" opacity="0.5" d="M26.7052 144.739C27.9658 144.673 28.9341 143.597 28.8681 142.336C28.802 141.076 27.7265 140.108 26.4659 140.174C25.2054 140.24 24.237 141.315 24.3031 142.576C24.3691 143.836 25.4446 144.805 26.7052 144.739Z" fill="#FBBF24"/>
<path id="Vector_50" d="M51.5135 137.716C54.0347 137.584 55.9714 135.433 55.8393 132.912C55.7072 130.391 53.5562 128.454 51.0351 128.586C48.5139 128.719 46.5772 130.869 46.7093 133.391C46.8414 135.912 48.9924 137.849 51.5135 137.716Z" fill="#F0FDF4"/>
<path id="Vector_51" d="M49.5625 133.241L50.7635 134.323L52.9264 131.92" stroke="#73B942" stroke-width="1.14281" stroke-linecap="round" stroke-linejoin="round"/>
<path id="Vector_52" d="M62.9263 137.118C65.4473 136.986 67.3833 134.835 67.2513 132.314C67.1193 129.793 64.9683 127.856 62.4473 127.988C59.9263 128.12 57.9896 130.271 58.1217 132.793C58.2538 135.314 60.4047 137.25 62.9263 137.118Z" fill="#FEF3C7"/>
<path id="Vector_53" d="M63.8284 132.494C63.7954 131.863 63.2574 131.379 62.6274 131.412C61.9964 131.445 61.5124 131.983 61.5454 132.613C61.5784 133.243 62.1164 133.728 62.7464 133.695C63.3774 133.662 63.8614 133.124 63.8284 132.494Z" fill="#F59E0B"/>
<path id="Vector_54" d="M57.5165 153.995L15.2903 156.208C14.3449 156.258 13.6186 157.065 13.6682 158.01C13.7177 158.955 14.5243 159.682 15.4698 159.632L57.6959 157.419C58.6414 157.37 59.3676 156.563 59.3181 155.618C59.2685 154.672 58.4619 153.946 57.5165 153.995Z" fill="#60A5FA"/>
<path id="Vector_55" d="M46.7183 160.855L15.334 162.5C14.5461 162.541 13.9409 163.214 13.9822 164.001C14.0235 164.789 14.6957 165.395 15.4835 165.353L46.8678 163.709C47.6557 163.667 48.2609 162.995 48.2196 162.207C48.1783 161.419 47.5062 160.814 46.7183 160.855Z" fill="#D1D5DB"/>
</g>
<g id="card-chart">
<path id="Vector_56" d="M316.36 120.656L250.329 114.879C246.556 114.549 243.231 117.34 242.901 121.113L239.614 158.682C239.284 162.454 242.074 165.78 245.847 166.11L311.878 171.887C315.65 172.217 318.976 169.427 319.306 165.654L322.593 128.085C322.923 124.312 320.133 120.986 316.36 120.656Z" fill="white" stroke="#E5E7EB" stroke-width="1.14281"/>
<path id="Vector_57" d="M276.186 127.466L257.402 125.823C255.516 125.658 253.853 127.053 253.688 128.939L251.397 155.124C251.232 157.01 252.627 158.673 254.513 158.838L273.298 160.482C275.184 160.647 276.847 159.251 277.012 157.365L279.303 131.18C279.468 129.294 278.073 127.631 276.186 127.466Z" fill="#F9FAFB" stroke="#73B942" stroke-width="1.14281"/>
<path id="Vector_58" opacity="0.4" d="M273.412 132.959L259.181 131.714C258.552 131.659 257.998 132.124 257.943 132.753C257.888 133.382 258.353 133.936 258.982 133.991L273.212 135.236C273.841 135.291 274.395 134.826 274.45 134.197C274.505 133.569 274.04 133.014 273.412 132.959Z" fill="#73B942"/>
<path id="Vector_59" d="M270.352 138.427L258.398 137.382C257.927 137.34 257.511 137.689 257.47 138.161C257.428 138.632 257.777 139.048 258.249 139.089L270.203 140.135C270.674 140.176 271.09 139.828 271.131 139.356C271.172 138.884 270.824 138.469 270.352 138.427Z" fill="#D1D5DB"/>
<path id="Vector_60" d="M272.85 142.661L258.049 141.366C257.578 141.325 257.162 141.674 257.121 142.145C257.08 142.617 257.428 143.033 257.9 143.074L272.7 144.369C273.172 144.41 273.587 144.061 273.629 143.59C273.67 143.118 273.321 142.702 272.85 142.661Z" fill="#D1D5DB"/>
<path id="Vector_61" d="M267.378 146.197L257.701 145.351C257.229 145.31 256.814 145.658 256.772 146.13C256.731 146.602 257.08 147.017 257.551 147.059L267.228 147.905C267.7 147.946 268.116 147.598 268.157 147.126C268.198 146.654 267.849 146.239 267.378 146.197Z" fill="#D1D5DB"/>
<path id="Vector_62" d="M264.318 151.666L257.488 151.068C256.859 151.013 256.304 151.478 256.249 152.107L255.951 155.522C255.896 156.151 256.361 156.705 256.99 156.76L263.82 157.358C264.449 157.413 265.003 156.948 265.058 156.319L265.357 152.904C265.412 152.275 264.947 151.721 264.318 151.666Z" fill="#F0FDF4"/>
<text id="&#195;&#162;&#194;&#130;&#194;&#172;" transform="translate(260.896 151.458) rotate(5)" fill="#73B942" xml:space="preserve" style="white-space: pre" font-family="Inter" font-size="4.57125" font-style="italic" font-weight="bold" letter-spacing="0em"><tspan x="0" y="4.66227">&#x20ac;</tspan></text>
<path id="Vector_63" opacity="0.6" d="M280.94 125.588L257.601 123.546C256.972 123.491 256.418 123.956 256.363 124.585C256.308 125.213 256.773 125.768 257.402 125.823L280.74 127.865C281.369 127.92 281.923 127.455 281.978 126.826C282.033 126.197 281.568 125.643 280.94 125.588Z" fill="#E5E7EB"/>
<path id="Vector_64" opacity="0.4" d="M283.416 123.51L260.077 121.468C259.448 121.413 258.894 121.878 258.839 122.507C258.784 123.136 259.249 123.69 259.878 123.745L283.216 125.787C283.845 125.842 284.4 125.377 284.455 124.748C284.51 124.119 284.044 123.565 283.416 123.51Z" fill="#E5E7EB"/>
<path id="Vector_65" d="M311.45 137.434L289.25 135.492C288.307 135.41 287.476 136.107 287.393 137.05C287.311 137.994 288.008 138.825 288.952 138.908L311.152 140.85C312.095 140.932 312.926 140.235 313.009 139.292C313.091 138.348 312.394 137.517 311.45 137.434Z" fill="#73B942"/>
<path id="Vector_66" d="M305.445 143.792L288.368 142.298C287.582 142.229 286.889 142.811 286.821 143.597C286.752 144.383 287.333 145.075 288.119 145.144L305.196 146.638C305.982 146.707 306.675 146.126 306.744 145.34C306.813 144.554 306.231 143.861 305.445 143.792Z" fill="#D1D5DB"/>
</g>
<g id="card-flow">
<path id="Vector_67" d="M95.6844 195.422L29.5631 200.045C25.7853 200.31 22.937 203.586 23.2012 207.364L25.8319 244.985C26.0961 248.763 29.3727 251.611 33.1504 251.347L99.2724 246.723C103.049 246.459 105.898 243.182 105.634 239.405L103.003 201.784C102.739 198.006 99.4624 195.158 95.6844 195.422Z" fill="white" stroke="#E5E7EB" stroke-width="1.14281"/>
<path id="Vector_68" d="M38.8466 226.318C42.6243 226.054 45.4726 222.777 45.2084 218.999C44.9443 215.222 41.6677 212.373 37.89 212.637C34.1122 212.902 31.2639 216.178 31.5281 219.956C31.7923 223.734 35.0689 226.582 38.8466 226.318Z" fill="#EFF6FF" stroke="#60A5FA" stroke-width="1.14281"/>
<text id="1" transform="translate(35.0535 214.464) rotate(-4)" fill="#60A5FA" xml:space="preserve" style="white-space: pre" font-family="Inter" font-size="7.99969" font-style="italic" font-weight="bold" letter-spacing="0em"><tspan x="0" y="7.90898">1</tspan></text>
<path id="Vector_69" d="M45.2085 218.999L54.3287 218.362" stroke="#73B942" stroke-width="1.14281" stroke-linecap="round"/>
<path id="Vector_70" d="M54.3288 218.362L51.3591 216.851L51.5983 220.271L54.3288 218.362Z" fill="#73B942"/>
<path id="Vector_71" d="M61.6474 224.724C65.4254 224.459 68.2734 221.183 68.0094 217.405C67.7454 213.627 64.4684 210.779 60.6906 211.043C56.9129 211.307 54.0646 214.584 54.3288 218.362C54.5929 222.139 57.8695 224.988 61.6474 224.724Z" fill="#DBEAFE" stroke="#60A5FA" stroke-width="1.14281"/>
<text id="2" transform="translate(57.7206 212.878) rotate(-4)" fill="#60A5FA" xml:space="preserve" style="white-space: pre" font-family="Inter" font-size="7.99969" font-style="italic" font-weight="bold" letter-spacing="0em"><tspan x="0" y="7.90898">2</tspan></text>
<path id="Vector_72" d="M68.0094 217.405L77.1294 216.767" stroke="#73B942" stroke-width="1.14281" stroke-linecap="round"/>
<path id="Vector_73" d="M77.1294 216.767L74.1594 215.257L74.3984 218.677L77.1294 216.767Z" fill="#73B942"/>
<path id="Vector_74" d="M84.4474 223.129C88.2254 222.865 91.0734 219.588 90.8094 215.811C90.5454 212.033 87.2684 209.185 83.4914 209.449C79.7134 209.713 76.8654 212.989 77.1294 216.767C77.3934 220.545 80.6704 223.393 84.4474 223.129Z" fill="#F0FDF4" stroke="#73B942" stroke-width="1.14281"/>
<path id="Vector_75" d="M82.2594 216.409L83.4794 217.469L85.5994 215.029" stroke="#73B942" stroke-width="1.14281" stroke-linecap="round" stroke-linejoin="round"/>
<path id="Vector_76" opacity="0.2" d="M89.3104 210.76C91.8294 210.584 93.7284 208.4 93.5524 205.881C93.3764 203.363 91.1914 201.464 88.6734 201.64C86.1544 201.816 84.2554 204.001 84.4314 206.519C84.6084 209.038 86.7924 210.936 89.3104 210.76Z" fill="#73B942"/>
<path id="Vector_77" opacity="0.6" d="M88.7924 203.35L89.1915 209.05M86.1425 206.399L91.8425 206.001" stroke="#73B942" stroke-width="0.85711"/>
<path id="Vector_78" d="M80.4053 230.858L38.2247 233.808C37.2803 233.874 36.5682 234.693 36.6342 235.638C36.7003 236.582 37.5194 237.294 38.4638 237.228L80.6453 234.278C81.5893 234.212 82.3013 233.393 82.2353 232.449C82.1693 231.504 81.3503 230.792 80.4053 230.858Z" fill="#73B942"/>
<path id="Vector_79" d="M69.7294 237.906L38.3783 240.098C37.5912 240.153 36.9978 240.836 37.0529 241.623C37.1079 242.41 37.7905 243.003 38.5776 242.948L69.9284 240.756C70.7154 240.701 71.3084 240.018 71.2534 239.231C71.1984 238.444 70.5164 237.851 69.7294 237.906Z" fill="#D1D5DB"/>
</g>
<g id="card-plus">
<path id="Vector_80" d="M292.789 199.444L226.596 195.975C222.814 195.776 219.588 198.681 219.39 202.463L217.416 240.124C217.218 243.906 220.123 247.133 223.905 247.331L290.097 250.8C293.879 250.998 297.105 248.093 297.303 244.311L299.277 206.65C299.475 202.868 296.57 199.642 292.789 199.444Z" fill="white" stroke="#E5E7EB" stroke-width="1.14281"/>
<path id="Vector_81" d="M283.06 210.377L235.128 207.865C232.607 207.733 230.456 209.67 230.324 212.191L229.307 231.592C229.175 234.114 231.112 236.264 233.633 236.397L281.565 238.909C284.086 239.041 286.237 237.104 286.369 234.583L287.386 215.182C287.518 212.661 285.582 210.51 283.06 210.377Z" fill="#F9FAFB" stroke="#E5E7EB" stroke-width="0.85711"/>
<path id="Vector_82" d="M268.781 215.351L237.397 213.706C236.609 213.665 235.937 214.27 235.896 215.058C235.854 215.846 236.459 216.518 237.247 216.559L268.632 218.204C269.419 218.246 270.092 217.64 270.133 216.852C270.174 216.065 269.569 215.392 268.781 215.351Z" fill="#E5E7EB"/>
<path id="Vector_83" d="M262.776 220.758L237.098 219.413C236.31 219.371 235.638 219.977 235.596 220.764C235.555 221.552 236.16 222.224 236.948 222.266L262.626 223.611C263.414 223.653 264.086 223.048 264.128 222.26C264.169 221.472 263.564 220.8 262.776 220.758Z" fill="#E5E7EB"/>
<path id="Vector_84" d="M265.33 226.614L236.799 225.119C236.011 225.077 235.339 225.683 235.297 226.47C235.256 227.258 235.861 227.931 236.649 227.972L265.18 229.467C265.968 229.508 266.64 228.903 266.682 228.115C266.723 227.327 266.118 226.655 265.33 226.614Z" fill="#E5E7EB"/>
<path id="Vector_85" d="M280.753 232.572C285.165 232.803 288.929 229.414 289.16 225.002C289.392 220.59 286.002 216.826 281.59 216.595C277.178 216.363 273.414 219.753 273.183 224.165C272.952 228.577 276.341 232.341 280.753 232.572Z" fill="#73B942"/>
<path id="Vector_86" d="M281.381 220.589L280.962 228.578M277.177 224.374L285.166 224.793" stroke="white" stroke-width="1.42852" stroke-linecap="round"/>
<path id="Vector_87" d="M272.856 241.313L230.63 239.1C229.685 239.051 228.878 239.777 228.829 240.722C228.779 241.668 229.505 242.474 230.451 242.524L272.677 244.737C273.622 244.786 274.429 244.06 274.478 243.115C274.528 242.169 273.802 241.363 272.856 241.313Z" fill="#73B942"/>
</g>
</g>
<defs>
<linearGradient id="paint0_linear_8_741" x1="87.0743" y1="71.968" x2="87.0743" y2="11500.1" gradientUnits="userSpaceOnUse">
<stop stop-color="white"/>
<stop offset="1" stop-color="#F9FAFB"/>
</linearGradient>
</defs>
</svg>
