<svg fill="none" height="343" viewBox="0 0 400 343" width="400" xmlns="http://www.w3.org/2000/svg" xmlns:xlink="http://www.w3.org/1999/xlink"><linearGradient id="a" gradientUnits="userSpaceOnUse" x1="125.717" x2="125.717" y1="114.281" y2="11542.4"><stop offset="0" stop-color="#fff"/><stop offset="1" stop-color="#f9fafb"/></linearGradient><g opacity=".3" stroke-dasharray="3.43 2.29" stroke-width="1.14281"><path d="m200 148.566-97.139-68.5692" stroke="#73b942"/><path d="m200 148.566 97.139-68.5692" stroke="#60a5fa"/><path d="m200 159.994-119.9954 22.856" stroke="#60a5fa"/><path d="m200 159.994 119.995 22.856" stroke="#73b942"/><path d="m200 171.422-97.139 91.425" stroke="#73b942"/><path d="m200 171.422 97.139 91.425" stroke="#60a5fa"/></g><path d="m265.14 114.281h-130.28c-5.05 0-9.143 4.093-9.143 9.143v95.996c0 5.049 4.093 9.143 9.143 9.143h130.28c5.05 0 9.143-4.094 9.143-9.143v-95.996c0-5.05-4.093-9.143-9.143-9.143z" fill="url(#a)" stroke="#e5e7eb" stroke-width="1.14281"/><path d="m265.14 114.281h-130.28c-5.05 0-9.143 4.093-9.143 9.143v9.142c0 5.05 4.093 9.143 9.143 9.143h130.28c5.05 0 9.143-4.093 9.143-9.143v-9.142c0-5.05-4.093-9.143-9.143-9.143z" fill="#fff"/><path d="m274.283 134.281h-148.566v1.142h148.566z" fill="#e5e7eb"/><path d="m136.003 130.852c1.577 0 2.857-1.279 2.857-2.857s-1.28-2.857-2.857-2.857c-1.578 0-2.857 1.279-2.857 2.857s1.279 2.857 2.857 2.857z" fill="#f87171" opacity=".7"/><path d="m145.145 130.852c1.578 0 2.857-1.279 2.857-2.857s-1.279-2.857-2.857-2.857-2.857 1.279-2.857 2.857 1.279 2.857 2.857 2.857z" fill="#fbbf24" opacity=".7"/><path d="m154.287 130.852c1.578 0 2.857-1.279 2.857-2.857s-1.279-2.857-2.857-2.857c-1.577 0-2.857 1.279-2.857 2.857s1.28 2.857 2.857 2.857z" fill="#73b942" opacity=".7"/><path d="m226.57 124.567h-53.14c-1.105 0-2 .895-2 2 0 1.104.895 1.999 2 1.999h53.14c1.105 0 2-.895 2-1.999 0-1.105-.895-2-2-2z" fill="#73b942"/><path d="m210 130.852h-37.142c-.789 0-1.428.64-1.428 1.429s.639 1.428 1.428 1.428h37.142c.789 0 1.428-.639 1.428-1.428s-.639-1.429-1.428-1.429z" fill="#d1d5db"/><path d="m169.715 145.708h-30.856c-2.524 0-4.571 2.047-4.571 4.572v19.428c0 2.524 2.047 4.571 4.571 4.571h30.856c2.525 0 4.572-2.047 4.572-4.571v-19.428c0-2.525-2.047-4.572-4.572-4.572z" fill="#f0fdf4"/><text fill="#73b942" font-family="Inter" font-size="10.2853" font-weight="bold" letter-spacing="0em"><tspan x="144.388" y="161.163">342</tspan></text><path d="m168.573 165.708h-28.571c-.631 0-1.143.511-1.143 1.143 0 .631.512 1.142 1.143 1.142h28.571c.631 0 1.142-.511 1.142-1.142 0-.632-.511-1.143-1.142-1.143z" fill="#73b942" opacity=".4"/><path d="m215.428 145.708h-30.856c-2.525 0-4.571 2.047-4.571 4.572v19.428c0 2.524 2.046 4.571 4.571 4.571h30.856c2.525 0 4.571-2.047 4.571-4.571v-19.428c0-2.525-2.046-4.572-4.571-4.572z" fill="#eff6ff"/><text fill="#60a5fa" font-family="Inter" font-size="10.2853" font-weight="bold" letter-spacing="0em"><tspan x="188.857" y="161.163">89%</tspan></text><path d="m214.285 165.708h-28.57c-.631 0-1.143.511-1.143 1.143 0 .631.512 1.142 1.143 1.142h28.57c.631 0 1.143-.511 1.143-1.142 0-.632-.512-1.143-1.143-1.143z" fill="#60a5fa" opacity=".4"/><path d="m261.14 145.708h-30.855c-2.525 0-4.572 2.047-4.572 4.572v19.428c0 2.524 2.047 4.571 4.572 4.571h30.855c2.525 0 4.572-2.047 4.572-4.571v-19.428c0-2.525-2.047-4.572-4.572-4.572z" fill="#f0fdf4"/><text fill="#73b942" font-family="Inter" font-size="10.2853" font-weight="bold" letter-spacing="0em"><tspan x="238.211" y="161.163">24</tspan></text><path d="m259.998 165.708h-28.571c-.631 0-1.142.511-1.142 1.143 0 .631.511 1.142 1.142 1.142h28.571c.631 0 1.143-.511 1.143-1.142 0-.632-.512-1.143-1.143-1.143z" fill="#73b942" opacity=".4"/><path d="m146.859 191.421h-5.142c-.947 0-1.715.768-1.715 1.714v13.714c0 .947.768 1.714 1.715 1.714h5.142c.947 0 1.714-.767 1.714-1.714v-13.714c0-.946-.767-1.714-1.714-1.714z" fill="#93c5fd"/><path d="m160.002 182.85h-5.143c-.947 0-1.714.768-1.714 1.714v22.285c0 .947.767 1.714 1.714 1.714h5.143c.946 0 1.714-.767 1.714-1.714v-22.285c0-.946-.768-1.714-1.714-1.714z" fill="#60a5fa"/><path d="m173.144 177.136h-5.143c-.947 0-1.714.767-1.714 1.714v27.999c0 .947.767 1.714 1.714 1.714h5.143c.947 0 1.714-.767 1.714-1.714v-27.999c0-.947-.767-1.714-1.714-1.714z" fill="#73b942"/><path d="m186.286 185.707h-5.142c-.947 0-1.715.768-1.715 1.714v19.428c0 .947.768 1.714 1.715 1.714h5.142c.947 0 1.714-.767 1.714-1.714v-19.428c0-.946-.767-1.714-1.714-1.714z" fill="#93c5fd"/><path d="m199.429 181.707h-5.143c-.947 0-1.714.768-1.714 1.714v23.428c0 .947.767 1.714 1.714 1.714h5.143c.946 0 1.714-.767 1.714-1.714v-23.428c0-.946-.768-1.714-1.714-1.714z" fill="#60a5fa"/><path d="m255.712 182.85h-42.855c-.789 0-1.429.64-1.429 1.429s.64 1.428 1.429 1.428h42.855c.789 0 1.429-.639 1.429-1.428s-.64-1.429-1.429-1.429z" fill="#d1d5db"/><path d="m244.284 188.564h-31.427c-.789 0-1.429.64-1.429 1.429s.64 1.428 1.429 1.428h31.427c.789 0 1.429-.639 1.429-1.428s-.64-1.429-1.429-1.429z" fill="#e5e7eb"/><path d="m249.998 194.278h-37.141c-.789 0-1.429.64-1.429 1.429s.64 1.428 1.429 1.428h37.141c.789 0 1.429-.639 1.429-1.428s-.64-1.429-1.429-1.429z" fill="#e5e7eb"/><path d="m133.884 42.9111-66.0306 5.7769c-3.7726.3301-6.5633 3.6559-6.2332 7.4284l3.2869 37.5694c.33 3.7725 3.6559 6.5632 7.4284 6.2331l66.0305-5.7769c3.773-.3301 6.564-3.6559 6.234-7.4284l-3.287-37.5694c-.33-3.7725-3.656-6.5632-7.429-6.2331z" fill="#fff" stroke="#e5e7eb" stroke-width="1.14281"/><path d="m80.3904 73.9762c5.0301-.44 8.751-4.8745 8.3109-9.9045-.44-5.0301-4.8744-8.751-9.9045-8.3109-5.03.4401-8.751 4.8745-8.3109 9.9045.4401 5.0301 4.8745 8.751 9.9045 8.3109z" fill="#eff6ff"/><path d="m79.8426 67.7146c2.2007-.1925 3.8286-2.1326 3.636-4.3332-.1925-2.2006-2.1326-3.8285-4.3332-3.636-2.2007.1925-3.8286 2.1326-3.636 4.3332.1925 2.2007 2.1326 3.8286 4.3332 3.636z" fill="#60a5fa"/><path d="m79.8426 67.7146c-3.3965 4.8859-6.0435 7.4119-7.9409 7.5779l17.077-1.4941c-1.8975.166-4.9428-1.8619-9.1361-6.0838z" fill="#60a5fa"/><path d="m93.8244 63.6235c1.5719-.1375 2.7347-1.5233 2.5972-3.0952-.1376-1.5719-1.5233-2.7347-3.0952-2.5971-1.5719.1375-2.7347 1.5232-2.5972 3.0951.1376 1.5719 1.5233 2.7347 3.0952 2.5972z" fill="#93c5fd" opacity=".6"/><path d="m99.6661 64.8332c1.5719-.1375 2.7349-1.5233 2.5969-3.0952-.137-1.5719-1.523-2.7346-3.0949-2.5971s-2.7347 1.5233-2.5972 3.0952c.1375 1.5718 1.5233 2.7346 3.0952 2.5971z" fill="#93c5fd" opacity=".4"/><path d="m118.977 75.7627-42.1229 3.6853c-.9432.0825-1.6408.914-1.5583 1.8571s.9139 1.6408 1.8571 1.5583l42.1231-3.6853c.943-.0825 1.641-.914 1.558-1.8571-.082-.9431-.914-1.6408-1.857-1.5583z" fill="#60a5fa"/><path d="m97.4245 85.1049-17.6462 1.5438c-2.2006.1925-3.8285 2.1326-3.636 4.3332.1925 2.2007 2.1326 3.8286 4.3332 3.6361l17.6462-1.5439c2.2003-.1925 3.8283-2.1326 3.6363-4.3332-.193-2.2007-2.1328-3.8286-4.3335-3.636z" fill="#eff6ff"/><text fill="#60a5fa" font-family="Inter" font-size="6.28547" font-weight="bold" letter-spacing="0em" transform="matrix(.9961947 -.08715574 .08715574 .9961947 82.0553 86.4497)"><tspan x=".318875" y="6.28563">342</tspan></text><path d="m331.794 48.08-66.121-4.6237c-3.778-.2641-7.055 2.5842-7.319 6.3619l-2.631 37.621c-.264 3.7777 2.585 7.0543 6.362 7.3185l66.122 4.6236c3.778.2642 7.054-2.5841 7.319-6.3618l2.63-37.621c.264-3.7777-2.584-7.0543-6.362-7.3185z" fill="#fff" stroke="#e5e7eb" stroke-width="1.14281"/><path d="m277.986 55.7734-6.84-.4783c-.945-.066-1.764.646-1.83 1.5905l-1.156 16.5304c-.066.9444.646 1.7636 1.591 1.8296l6.84.4783c.944.0661 1.763-.646 1.829-1.5904l1.156-16.5305c.066-.9444-.646-1.7635-1.59-1.8296z" fill="#93c5fd"/><path d="m290.698 62.3904-6.841-.4783c-.944-.0661-1.763.646-1.829 1.5904l-.758 10.8303c-.066.9444.646 1.7636 1.591 1.8296l6.84.4783c.945.0661 1.764-.646 1.83-1.5904l.757-10.8303c.066-.9444-.646-1.7636-1.59-1.8296z" fill="#60a5fa"/><path d="m304.406 54.7568-6.84-.4783c-.945-.066-1.764.646-1.83 1.5905l-1.355 19.3805c-.066.9444.646 1.7636 1.59 1.8296l6.84.4783c.945.0661 1.764-.646 1.83-1.5905l1.355-19.3805c.066-.9444-.646-1.7635-1.59-1.8296z" fill="#73b942"/><path d="m317.688 61.4135 6.098-5.3015 5.302 6.0987" stroke="#73b942" stroke-linecap="round" stroke-linejoin="round" stroke-width="1.71422"/><path d="m323.786 56.1121-.916 13.1103" stroke="#73b942" stroke-linecap="round" stroke-width="1.42852"/><path d="m311.533 83.8953-42.181-2.9496c-.944-.066-1.764.6461-1.83 1.5905s.646 1.7636 1.591 1.8296l42.181 2.9496c.944.0661 1.764-.646 1.83-1.5904.066-.9445-.646-1.7636-1.591-1.8297z" fill="#73b942"/><path d="m297.129 89.189-28.5-1.9929c-.787-.0551-1.47.5383-1.525 1.3254-.055.787.538 1.4696 1.325 1.5247l28.501 1.9929c.787.0551 1.47-.5383 1.525-1.3254.055-.787-.539-1.4696-1.326-1.5247z" fill="#d1d5db"/><path d="m111.905 158.291-66.1928 3.469c-3.7817.198-6.6868 3.424-6.4886 7.206l1.9737 37.661c.1982 3.782 3.4246 6.687 7.2064 6.489l66.1923-3.469c3.782-.198 6.687-3.425 6.489-7.206l-1.974-37.662c-.198-3.781-3.425-6.686-7.206-6.488z" fill="#fff" stroke="#e5e7eb" stroke-width="1.14281"/><path d="m75.9828 171.617-21.6837 1.137c-1.8909.099-3.3434 1.712-3.2443 3.603l.6579 12.554c.0991 1.89 1.7123 3.343 3.6032 3.244l21.6837-1.137c1.8909-.099 3.3434-1.712 3.2443-3.603l-.6579-12.553c-.0991-1.891-1.7123-3.344-3.6032-3.245z" fill="#eff6ff" stroke="#60a5fa" stroke-width="1.14281"/><path d="m64.209 176.24-9.13.478c-.6303.033-1.1145.571-1.0814 1.201.033.63.5707 1.115 1.201 1.082l9.13-.479c.6303-.033 1.1145-.571 1.0814-1.201-.033-.63-.5707-1.114-1.201-1.081z" fill="#60a5fa"/><path d="m60.2122 187.321c1.2606-.066 2.2289-1.142 2.1628-2.403-.066-1.26-1.1415-2.228-2.4021-2.162s-2.2289 1.141-2.1628 2.402c.066 1.26 1.1415 2.229 2.4021 2.163z" fill="#fbbf24" opacity=".5"/><path d="m65.3478 187.052c1.2606-.066 2.2289-1.142 2.1629-2.403-.0661-1.26-1.1416-2.228-2.4022-2.162-1.2605.066-2.2289 1.141-2.1628 2.402.066 1.26 1.1415 2.229 2.4021 2.163z" fill="#fbbf24" opacity=".5"/><path d="m90.1561 180.029c2.5212-.132 4.4579-2.283 4.3258-4.804s-2.2831-4.458-4.8042-4.326c-2.5212.133-4.4579 2.283-4.3258 4.805.1321 2.521 2.2831 4.458 4.8042 4.325z" fill="#f0fdf4"/><path d="m88.2051 175.554 1.201 1.082 2.1629-2.403" stroke="#73b942" stroke-linecap="round" stroke-linejoin="round" stroke-width="1.14281"/><path d="m101.569 179.431c2.521-.132 4.457-2.283 4.325-4.804s-2.283-4.458-4.804-4.326-4.4577 2.283-4.3256 4.805c.1321 2.521 2.283 4.457 4.8046 4.325z" fill="#fef3c7"/><path d="m102.471 174.807c-.033-.631-.571-1.115-1.201-1.082-.631.033-1.115.571-1.082 1.201s.571 1.115 1.201 1.082c.631-.033 1.115-.571 1.082-1.201z" fill="#f59e0b"/><path d="m96.1591 196.308-42.2262 2.213c-.9454.05-1.6717.857-1.6221 1.802.0495.945.8561 1.672 1.8016 1.622l42.2261-2.213c.9455-.049 1.6717-.856 1.6222-1.801-.0496-.946-.8562-1.672-1.8016-1.623z" fill="#60a5fa"/><path d="m85.3609 203.168-31.3843 1.645c-.7879.041-1.3931.714-1.3518 1.501.0413.788.7135 1.394 1.5013 1.352l31.3843-1.644c.7879-.042 1.3931-.714 1.3518-1.502s-.7134-1.393-1.5013-1.352z" fill="#d1d5db"/><path d="m355.003 162.969-66.031-5.777c-3.773-.33-7.098 2.461-7.428 6.234l-3.287 37.569c-.33 3.772 2.46 7.098 6.233 7.428l66.031 5.777c3.772.33 7.098-2.46 7.428-6.233l3.287-37.569c.33-3.773-2.46-7.099-6.233-7.429z" fill="#fff" stroke="#e5e7eb" stroke-width="1.14281"/><path d="m314.829 169.779-18.784-1.643c-1.886-.165-3.549 1.23-3.714 3.116l-2.291 26.185c-.165 1.886 1.23 3.549 3.116 3.714l18.785 1.644c1.886.165 3.549-1.231 3.714-3.117l2.291-26.185c.165-1.886-1.23-3.549-3.117-3.714z" fill="#f9fafb" stroke="#73b942" stroke-width="1.14281"/><path d="m312.055 175.272-14.231-1.245c-.629-.055-1.183.41-1.238 1.039s.41 1.183 1.039 1.238l14.23 1.245c.629.055 1.183-.41 1.238-1.039.055-.628-.41-1.183-1.038-1.238z" fill="#73b942" opacity=".4"/><path d="m308.995 180.74-11.954-1.045c-.471-.042-.887.307-.928.779-.042.471.307.887.779.928l11.954 1.046c.471.041.887-.307.928-.779s-.307-.887-.779-.929z" fill="#d1d5db"/><path d="m311.493 184.974-14.801-1.295c-.471-.041-.887.308-.928.779-.041.472.307.888.779.929l14.8 1.295c.472.041.887-.308.929-.779.041-.472-.308-.888-.779-.929z" fill="#d1d5db"/><path d="m306.021 188.51-9.677-.846c-.472-.041-.887.307-.929.779-.041.472.308.887.779.929l9.677.846c.472.041.888-.307.929-.779s-.308-.887-.779-.929z" fill="#d1d5db"/><path d="m302.961 193.979-6.83-.598c-.629-.055-1.184.41-1.239 1.039l-.298 3.415c-.055.629.41 1.183 1.039 1.238l6.83.598c.629.055 1.183-.41 1.238-1.039l.299-3.415c.055-.629-.41-1.183-1.039-1.238z" fill="#f0fdf4"/><text fill="#73b942" font-family="Inter" font-size="4.57125" font-weight="bold" letter-spacing="0em" transform="matrix(.9961947 .08715574 -.08715574 .9961947 299.546 193.68)"><tspan x="0" y="4.66227">€</tspan></text><path d="m319.583 167.901-23.339-2.042c-.629-.055-1.183.41-1.238 1.039-.055.628.41 1.183 1.039 1.238l23.338 2.042c.629.055 1.183-.41 1.238-1.039s-.41-1.183-1.038-1.238z" fill="#e5e7eb" opacity=".6"/><path d="m322.059 165.823-23.339-2.042c-.629-.055-1.183.41-1.238 1.039s.41 1.183 1.039 1.238l23.338 2.042c.629.055 1.184-.41 1.239-1.039s-.411-1.183-1.039-1.238z" fill="#e5e7eb" opacity=".4"/><path d="m350.093 179.747-22.2-1.942c-.943-.082-1.774.615-1.857 1.558-.082.944.615 1.775 1.559 1.858l22.2 1.942c.943.082 1.774-.615 1.857-1.558.082-.944-.615-1.775-1.559-1.858z" fill="#73b942"/><path d="m344.088 186.105-17.077-1.494c-.786-.069-1.479.513-1.547 1.299-.069.786.512 1.478 1.298 1.547l17.077 1.494c.786.069 1.479-.512 1.548-1.298s-.513-1.479-1.299-1.548z" fill="#d1d5db"/><path d="m134.327 237.735-66.1213 4.623c-3.7778.265-6.6261 3.541-6.3619 7.319l2.6307 37.621c.2642 3.778 3.5408 6.626 7.3185 6.362l66.122-4.624c3.777-.264 6.626-3.541 6.362-7.318l-2.631-37.621c-.264-3.778-3.541-6.626-7.319-6.362z" fill="#fff" stroke="#e5e7eb" stroke-width="1.14281"/><path d="m77.4892 268.631c3.7777-.264 6.626-3.541 6.3618-7.319-.2641-3.777-3.5407-6.626-7.3184-6.362-3.7778.265-6.6261 3.541-6.3619 7.319s3.5408 6.626 7.3185 6.362z" fill="#eff6ff" stroke="#60a5fa" stroke-width="1.14281"/><text fill="#60a5fa" font-family="Inter" font-size="7.99969" font-weight="bold" letter-spacing="0em" transform="matrix(.99756405 -.06975647 .06975647 .99756405 73.6595 256.87)"><tspan x=".043044" y="7.90898">1</tspan></text><path d="m83.8511 261.312 9.1202-.637" stroke="#73b942" stroke-linecap="round" stroke-width="1.14281"/><path d="m92.9714 260.675-2.9697-1.511.2392 3.42z" fill="#73b942"/><path d="m100.29 267.037c3.778-.265 6.626-3.541 6.362-7.319s-3.541-6.626-7.3188-6.362c-3.7777.264-6.626 3.541-6.3618 7.319.2641 3.777 3.5407 6.626 7.3186 6.362z" fill="#dbeafe" stroke="#60a5fa" stroke-width="1.14281"/><text fill="#60a5fa" font-family="Inter" font-size="7.99969" font-weight="bold" letter-spacing="0em" transform="matrix(.99756405 -.06975647 .06975647 .99756405 95.8901 255.315)"><tspan x=".480565" y="7.90898">2</tspan></text><path d="m106.652 259.718 9.12-.638" stroke="#73b942" stroke-linecap="round" stroke-width="1.14281"/><path d="m115.772 259.08-2.97-1.51.239 3.42z" fill="#73b942"/><path d="m123.09 265.442c3.778-.264 6.626-3.541 6.362-7.318-.264-3.778-3.541-6.626-7.318-6.362-3.778.264-6.626 3.54-6.362 7.318s3.541 6.626 7.318 6.362z" fill="#f0fdf4" stroke="#73b942" stroke-width="1.14281"/><path d="m120.902 258.722 1.22 1.06 2.12-2.44" stroke="#73b942" stroke-linecap="round" stroke-linejoin="round" stroke-width="1.14281"/><path d="m127.953 253.073c2.519-.176 4.418-2.36 4.242-4.879-.176-2.518-2.361-4.417-4.879-4.241-2.519.176-4.418 2.361-4.242 4.879.177 2.519 2.361 4.417 4.879 4.241z" fill="#73b942" opacity=".2"/><path d="m127.435 245.663.399 5.7m-3.049-2.651 5.7-.398" opacity=".6" stroke="#73b942" stroke-width=".85711"/><path d="m119.048 273.171-42.1806 2.95c-.9444.066-1.6565.885-1.5905 1.83.0661.944.8852 1.656 1.8296 1.59l42.1815-2.95c.944-.066 1.656-.885 1.59-1.829-.066-.945-.885-1.657-1.83-1.591z" fill="#73b942"/><path d="m108.372 280.219-31.3511 2.192c-.7871.055-1.3805.738-1.3254 1.525.055.787.7376 1.38 1.5247 1.325l31.3508-2.192c.787-.055 1.38-.738 1.325-1.525s-.737-1.38-1.524-1.325z" fill="#d1d5db"/><path d="m331.432 241.757-66.193-3.469c-3.782-.199-7.008 2.706-7.206 6.488l-1.974 37.661c-.198 3.782 2.707 7.009 6.489 7.207l66.192 3.469c3.782.198 7.008-2.707 7.206-6.489l1.974-37.661c.198-3.782-2.707-7.008-6.488-7.206z" fill="#fff" stroke="#e5e7eb" stroke-width="1.14281"/><path d="m321.703 252.69-47.932-2.512c-2.521-.132-4.672 1.805-4.804 4.326l-1.017 19.401c-.132 2.522 1.805 4.672 4.326 4.805l47.932 2.512c2.521.132 4.672-1.805 4.804-4.326l1.017-19.401c.132-2.521-1.804-4.672-4.326-4.805z" fill="#f9fafb" stroke="#e5e7eb" stroke-width=".85711"/><g fill="#e5e7eb"><path d="m307.424 257.664-31.384-1.645c-.788-.041-1.46.564-1.501 1.352-.042.788.563 1.46 1.351 1.501l31.385 1.645c.787.042 1.46-.564 1.501-1.352.041-.787-.564-1.46-1.352-1.501z"/><path d="m301.419 263.071-25.678-1.345c-.788-.042-1.46.564-1.502 1.351-.041.788.564 1.46 1.352 1.502l25.678 1.345c.788.042 1.46-.563 1.502-1.351.041-.788-.564-1.46-1.352-1.502z"/><path d="m303.973 268.927-28.531-1.495c-.788-.042-1.46.564-1.502 1.351-.041.788.564 1.461 1.352 1.502l28.531 1.495c.788.041 1.46-.564 1.502-1.352.041-.788-.564-1.46-1.352-1.501z"/></g><path d="m319.396 274.885c4.412.231 8.176-3.158 8.407-7.57.232-4.412-3.158-8.176-7.57-8.407-4.412-.232-8.176 3.158-8.407 7.57s3.158 8.176 7.57 8.407z" fill="#73b942"/><path d="m320.024 262.902-.419 7.989m-3.785-4.204 7.989.419" stroke="#fff" stroke-linecap="round" stroke-width="1.42852"/><path d="m311.499 283.626-42.226-2.213c-.945-.049-1.752.677-1.801 1.622-.05.946.676 1.752 1.622 1.802l42.226 2.213c.945.049 1.752-.677 1.801-1.622.05-.946-.676-1.752-1.622-1.802z" fill="#73b942"/></svg>