<svg xmlns="http://www.w3.org/2000/svg" id="Ebene_1" viewBox="0 0 803.3 113.29"><defs><style>.cls-1{fill:#74b727;}.cls-2{fill:#74b727;}</style></defs><path class="cls-2" d="M124.83,110.47h-24.32v-43.18c0-5.57-.81-9.96-2.42-13.18s-4.95-4.83-10-4.84c-8.98,0-13.47,5.62-13.48,16.85v44.39h-24.36v-44.28c0-11.33-4.05-17-12.16-17-9.18,0-13.77,6-13.77,18v43.22H0V29.16h22.69v8.64h.29c4.3-7.62,11.77-11.43,22.42-11.43,10.45,0,18.26,4.84,23.44,14.51,6.15-9.67,14.75-14.5,25.79-14.51,8.88,0,16.01,2.74,21.39,8.21,1.36,1.44,2.63,2.95,3.81,4.54,1.13,1.59,1.99,3.34,2.56,5.2.63,2,1.12,3.54,1.47,4.62.45,1.87.69,3.79.73,5.71.15,2.74.22,4.47.22,5.2v50.62h.02Z"></path><path class="cls-2" d="M223.14,70.77c.01,2.16-.18,4.32-.59,6.45h-61c.55,4.44,2.84,8.47,6.38,11.2,3.64,2.83,8.15,4.3,12.76,4.18,5.86,0,10.79-2.54,14.8-7.62h24.91c-3.38,8.09-8.87,15.13-15.9,20.37-6.87,5.13-15.24,7.86-23.81,7.76-23.75.04-43.04-19.17-43.08-42.92,0-.05,0-.1,0-.15-.17-11.5,4.31-22.59,12.42-30.75,7.78-8.38,18.75-13.07,30.18-12.9,12.31,0,22.55,4.3,30.7,12.9,8.15,8.6,12.23,19.09,12.23,31.48ZM198.82,60.77c-.85-4.1-3.2-7.73-6.59-10.19-7.13-4.97-16.61-4.97-23.74,0-3.4,2.45-5.75,6.09-6.59,10.19h36.92Z"></path><path class="cls-2" d="M277.5,47.62h-11.72v62.85h-24.33v-62.85h-12v-18.46h12V2.05h24.33v27.11h11.72v18.46Z"></path><path class="cls-2" d="M371.27,110.47h-24.32v-8.79h-.26c-2.11,3.97-5.56,7.06-9.74,8.72-4.42,1.9-9.19,2.88-14,2.86-12.21,0-22.08-4.15-29.6-12.46-7.52-8.31-11.28-18.66-11.28-31.06,0-12.11,3.81-22.37,11.43-30.77,7.62-8.4,17.44-12.6,29.45-12.6,4.76-.02,9.48.95,13.84,2.86,4.13,1.72,7.6,4.73,9.89,8.57h.3v-8.64h24.32l-.03,81.31ZM346.95,69.74c.17-5.52-1.92-10.86-5.79-14.8-3.88-3.91-9.22-6.04-14.73-5.86-5.46-.17-10.73,2.05-14.43,6.08-3.75,4.03-5.78,9.37-5.64,14.88-.1,5.43,2.02,10.66,5.86,14.5,7.96,7.99,20.89,8.02,28.88.06.02-.02.04-.04.06-.06,3.84-3.95,5.93-9.29,5.79-14.8h0Z"></path><path class="cls-2" d="M449.95,85.57c0,8.67-3.27,15.45-9.82,20.36-6.55,4.91-14.31,7.36-23.3,7.36s-16.41-2.33-22.56-7-9.68-11.33-10.58-20h24.18c.25,2.19,1.35,4.19,3.07,5.57,1.78,1.31,3.95,1.98,6.16,1.9,2.05,0,4.05-.58,5.78-1.68,1.69-.92,2.73-2.7,2.71-4.62,0-.75-.12-1.49-.36-2.2-.25-.69-.63-1.33-1.1-1.9-.43-.52-.89-1.01-1.39-1.47-.61-.5-1.28-.91-2-1.24-.88-.44-1.54-.76-2-.95s-1.17-.49-2.2-.88l-2-.74c-4.67-1.56-8.18-2.78-10.55-3.66-12.9-4.67-19.35-11.75-19.34-21.24-.22-7.65,3.31-14.93,9.45-19.49,6.29-4.87,14.05-7.46,22-7.33,8.5,0,15.63,2.2,21.39,6.6s9.03,10.73,9.82,19h-23.74c-.09-4.1-2.63-6.15-7.62-6.15-1.7-.01-3.37.5-4.76,1.48-1.35.85-2.15,2.35-2.12,3.95.05,2.08,1.19,3.97,3,5,2.31,1.5,4.86,2.57,7.55,3.15,3.35.83,6.65,1.83,9.89,3,3.4,1.2,6.7,2.64,9.89,4.32,3.12,1.7,5.72,4.2,7.54,7.25,2.08,3.51,3.12,7.53,3.01,11.61Z"></path><path class="cls-2" d="M497.56,47.62h-10.25v62.85h-24.33v-62.85h-9.08v-18.46h9.08v-4.25C462.98,8.3,473.34,0,494.05,0h3.51v18.29c-4.39,0-7.19.67-8.42,2s-1.84,4.29-1.83,8.87h10.25v18.46Z"></path><path class="cls-2" d="M551.48,50.84c-6.25.2-11.01,1.3-14.29,3.3s-4.91,5.88-4.9,11.65v44.68h-24.32V29.16h22.85v8.64h.29c3.91-7.62,10.7-11.43,20.37-11.43v24.47Z"></path><path class="cls-1" d="M641.29,70.77c.02,2.16-.18,4.32-.58,6.45h-61c.54,4.44,2.83,8.47,6.37,11.2,3.62,2.8,8.1,4.28,12.68,4.18,5.86,0,10.79-2.54,14.79-7.62h24.91c-3.37,8.1-8.86,15.13-15.9,20.37-6.87,5.13-15.23,7.86-23.8,7.76-23.75.04-43.03-19.18-43.07-42.93,0-.05,0-.09,0-.14-.15-11.51,4.35-22.6,12.49-30.75,7.78-8.38,18.75-13.07,30.19-12.9,12.3,0,22.53,4.3,30.69,12.9s12.24,19.09,12.23,31.48ZM616.97,60.77c-.84-4.1-3.19-7.74-6.59-10.19-7.13-4.97-16.61-4.97-23.74,0-3.39,2.45-5.74,6.09-6.59,10.19h36.92Z"></path><path class="cls-2" d="M715.69,85.57c0,8.67-3.27,15.45-9.81,20.36s-14.31,7.35-23.3,7.33c-8.89,0-16.41-2.33-22.56-7-6.15-4.67-9.65-11.32-10.52-19.97h24.19c.25,2.19,1.36,4.19,3.08,5.57,1.78,1.31,3.94,1.98,6.15,1.9,2.05,0,4.06-.58,5.79-1.68,1.69-.92,2.73-2.7,2.71-4.62.03-1.5-.49-2.96-1.46-4.1-.43-.52-.9-1.01-1.39-1.47-.61-.5-1.28-.91-2-1.24-.88-.44-1.54-.76-2-.95s-1.17-.49-2.2-.88-1.68-.64-2-.74c-4.67-1.56-8.18-2.78-10.55-3.66-12.89-4.67-19.34-11.75-19.34-21.24-.22-7.65,3.31-14.93,9.45-19.49,6.29-4.87,14.05-7.46,22-7.33,8.5,0,15.63,2.2,21.4,6.6,5.77,4.4,9.04,10.73,9.81,19h-23.88c-.1-4.1-2.64-6.15-7.62-6.15-1.7-.02-3.37.5-4.76,1.47-1.35.85-2.16,2.35-2.12,3.95.05,2.08,1.19,3.97,3,5,2.31,1.5,4.86,2.57,7.55,3.15,3.34.83,6.64,1.83,9.88,3,3.4,1.19,6.7,2.64,9.89,4.32,3.12,1.7,5.73,4.2,7.55,7.25,2.1,3.51,3.16,7.53,3.06,11.62Z"></path><path class="cls-2" d="M803.19,110.47h-24.32v-44.24c0-11.33-4.33-17-13-17-9.08,0-13.62,5.37-13.63,16.12v45.12h-24.32V2.05h24.32v34.58h.3c3.81-6.84,10.81-10.26,21-10.26,9.67,0,17.05,2.98,22.12,8.94,2.44,2.83,4.28,6.12,5.42,9.67,1.04,2.91,1.71,5.93,2,9,.15,2.4.22,6.08.22,11.06l-.11,45.43Z"></path></svg>